<svg width="40" height="40" viewBox="0 0 40 40" fill="none" xmlns="http://www.w3.org/2000/svg">
<g clip-path="url(#clip0_68_598)">
<path d="M40.0532 19.0369C40.0439 18.8941 39.9957 18.7566 39.9136 18.6394C39.8315 18.5221 39.7188 18.4297 39.5878 18.3722C38.0219 17.6845 36.3261 17.3428 34.6162 17.3703C34.7638 16.9845 34.8927 16.5912 35.0007 16.1911C35.5402 14.191 35.5655 12.0694 35.0742 10.0559C35.0402 9.91692 34.9688 9.78996 34.8676 9.68885C34.7664 9.58773 34.6394 9.51633 34.5005 9.48243C31.8168 8.8272 29.0354 9.0854 26.5507 10.2023C26.3071 8.4836 25.7887 6.82251 25.0153 5.31009C23.9341 3.1961 22.3789 1.40688 20.5186 0.136102C20.3888 0.0473682 20.2353 -0.000106812 20.078 -0.000106812C19.9208 -0.000106812 19.7673 0.0473682 19.6375 0.136102C17.7769 1.40688 16.222 3.1961 15.1408 5.31009C14.3674 6.82259 13.849 8.48352 13.6054 10.2023C11.1207 9.0854 8.33929 8.82688 5.65562 9.48243C5.51665 9.51633 5.38966 9.58773 5.28849 9.68885C5.18731 9.78996 5.11584 9.91692 5.08187 10.0559C4.59023 12.0694 4.61585 14.191 5.15538 16.1911C5.26343 16.5905 5.39178 16.984 5.53992 17.3703C3.83523 17.3428 2.13718 17.6828 0.568275 18.3722C0.437333 18.4298 0.324706 18.5223 0.24265 18.6395C0.160594 18.7567 0.112252 18.8941 0.102884 19.0369C-0.0264907 21.0312 0.352884 23.0417 1.20031 24.8508C2.07437 26.717 3.43328 28.3313 5.13038 29.5197C6.71453 30.6287 8.53585 31.3297 10.438 31.5698V33.4516C8.76718 33.6017 7.45304 35.0091 7.45304 36.7188C7.45304 38.5281 8.92492 40 10.7343 40H29.4218C31.2312 40 32.703 38.5281 32.703 36.7188C32.703 34.9359 31.2733 33.4814 29.5005 33.4393V31.5942C31.4814 31.3818 33.3811 30.6711 35.0257 29.5197C36.7228 28.3313 38.0817 26.717 38.9558 24.8508C39.8032 23.0417 40.1826 21.0313 40.0532 19.0369ZM6.49578 10.8963C8.87124 10.426 11.3102 10.7648 13.4574 11.864C13.4493 12.0651 13.4451 12.2664 13.4446 12.4677C13.4446 12.8991 13.7946 13.2489 14.2259 13.2489C14.6573 13.2489 15.0071 12.8991 15.0071 12.4677C15.0071 8.10884 16.893 4.1422 20.0779 1.74259C23.263 4.1422 25.1487 8.10884 25.1487 12.4676C25.1487 12.8991 25.4984 13.2488 25.9299 13.2488C26.3615 13.2488 26.7112 12.8991 26.7112 12.4676C26.7112 12.2663 26.706 12.0652 26.6984 11.864C28.8456 10.7648 31.2843 10.426 33.6601 10.8963C34.3605 14.422 33.2804 18.0041 30.7227 20.5618C30.1512 21.1336 29.5173 21.6394 28.8328 22.0697C27.9041 20.3724 26.1015 19.2188 24.0339 19.2188H23.4968C24.189 18.4229 24.6091 17.3849 24.6091 16.25V15.495C24.6091 12.9963 22.5766 10.9638 20.0779 10.9638C17.5794 10.9638 15.5466 12.9963 15.5466 15.495V16.25C15.5466 17.3849 15.9672 18.4229 16.659 19.2188H15.9046C13.8794 19.2188 12.1094 20.3263 11.1649 21.9669C10.5407 21.5596 9.96046 21.0887 9.43335 20.5618C6.87538 18.0041 5.79538 14.422 6.49578 10.8963V10.8963ZM25.5942 27.9428C25.1627 27.9428 24.813 28.2926 24.813 28.7241V33.4375H15.1255V25.4141C15.1255 24.9826 14.7758 24.6328 14.3442 24.6328C13.9127 24.6328 13.563 24.9826 13.563 25.4141V33.4375H12.0005V31.0806C12.0171 31.0246 12.0273 30.9669 12.031 30.9085C12.0362 30.819 12.0259 30.7293 12.0005 30.6433V24.6852C12.0005 22.5324 13.7519 20.7813 15.9046 20.7813H24.0339C26.1866 20.7813 27.938 22.5324 27.938 24.6852V33.4375H26.3755V28.7241C26.3755 28.2926 26.0258 27.9428 25.5942 27.9428ZM17.1091 16.25V15.495C17.1091 13.8581 18.4409 12.5263 20.0779 12.5263C21.7148 12.5263 23.0466 13.8581 23.0466 15.495V16.25C23.0466 17.887 21.7148 19.2188 20.0779 19.2188C18.4409 19.2188 17.1091 17.887 17.1091 16.25ZM6.02671 28.2398C3.19038 26.2537 1.57445 23.0588 1.64195 19.6195C3.12214 19.0503 4.71354 18.8298 6.29273 18.9749C6.84461 19.9614 7.52957 20.8672 8.32835 21.6669C9.00755 22.3458 9.76359 22.9432 10.5812 23.447C10.4862 23.8528 10.4382 24.2683 10.438 24.6851V29.9921C8.85094 29.7603 7.34022 29.1601 6.02671 28.2398ZM17.8904 38.4375H10.7343C9.78648 38.4375 9.01554 37.6663 9.01554 36.7188C9.01554 35.7709 9.78648 35 10.7343 35H19.5909C19.3971 35.3882 19.2964 35.8162 19.2966 36.25V37.1875C19.2966 37.8766 18.736 38.4375 18.0466 38.4375H17.8904ZM31.1405 36.7188C31.1405 37.6663 30.3696 38.4375 29.4218 38.4375H20.5652C20.7588 38.0493 20.8595 37.6213 20.8591 37.1875V36.25C20.8591 35.5606 21.4201 35 22.1091 35H29.4218C30.3696 35 31.1405 35.7709 31.1405 36.7188ZM34.1294 28.2398C32.7479 29.2069 31.1591 29.8166 29.5005 30.022V24.6852C29.5005 24.3003 29.4598 23.925 29.3839 23.5624C31.256 22.4557 32.8016 20.8728 33.8633 18.9747C35.4425 18.8298 37.0339 19.0505 38.5141 19.6195C38.5816 23.0586 36.9657 26.2538 34.1294 28.2398V28.2398Z" fill="#756CFF" stroke="white" stroke-width="0.2"/>
<path d="M26.1466 24.8615C25.9998 24.7157 25.8014 24.6335 25.5945 24.6326C25.3889 24.6326 25.1875 24.7162 25.0421 24.8615C24.8961 25.0084 24.8139 25.2068 24.8132 25.4139C24.8132 25.6196 24.8966 25.8209 25.0421 25.9662C25.189 26.1122 25.3874 26.1945 25.5945 26.1951C25.8015 26.1944 25.9998 26.1122 26.1466 25.9662C26.2928 25.8195 26.3751 25.621 26.3757 25.4139C26.3757 25.2085 26.2921 25.0071 26.1466 24.8615Z" fill="#756CFF" stroke="white" stroke-width="0.2"/>
</g>
<defs>
<clipPath id="clip0_68_598">
<rect width="40" height="40" fill="white"/>
</clipPath>
</defs>
</svg>
