<svg width="41" height="40" viewBox="0 0 41 40" fill="none" xmlns="http://www.w3.org/2000/svg">
<g clip-path="url(#clip0_68_657)">
<path d="M25.5337 5.59674C28.0971 7.34307 29.7797 10.2807 29.7797 13.6103V16.5953M14.5348 5.62502C13.6094 6.26257 12.8013 7.05467 12.1462 7.96643M10.3303 16.5953V13.6102C10.3303 12.4899 10.5206 11.4141 10.8708 10.4125M27.6691 16.4705H28.8093C29.7666 16.4705 30.5426 17.2444 30.5426 18.199C30.5426 19.9988 29.4453 21.543 27.8815 22.2026M12.3309 22.2446C10.7126 21.6103 9.56689 20.0381 9.56689 18.1991C9.56689 17.2445 10.3429 16.4706 11.3002 16.4706H12.4404M13.0534 25.2102C12.6518 24.494 12.4408 23.687 12.4408 22.8664V16.4516C12.6554 16.4516 12.8575 16.3836 13.0236 16.2649C13.1897 16.1469 13.3198 15.9774 13.3895 15.775L14.5952 12.2656C14.8419 11.5461 15.6112 11.1453 16.3453 11.3547L16.7417 11.4672C18.9079 12.0844 21.2048 12.0844 23.371 11.4672L23.7642 11.3547C24.4983 11.1453 25.2676 11.5461 25.5144 12.2664L26.7201 15.775C26.7877 15.9724 26.9155 16.1437 27.0856 16.265C27.2558 16.3863 27.4596 16.4516 27.6688 16.4516V17.8516M27.6688 20.586V22.8664C27.6688 24.25 27.0702 25.5664 26.026 26.4774L23.038 29.0836C22.4534 29.5939 21.7029 29.8751 20.9259 29.875H19.1836C18.4065 29.875 17.656 29.5946 17.0715 29.0836L14.9234 27.2102M19.1712 22.3174C19.4448 22.4564 19.7476 22.5289 20.0548 22.5289C20.3619 22.5289 20.6647 22.4564 20.9384 22.3174" stroke="#756CFF" stroke-miterlimit="10" stroke-linecap="round" stroke-linejoin="round"/>
<path d="M18.4304 25.2837C19.4509 25.8965 20.6585 25.8965 21.679 25.2837M15.407 16.9045C16.1873 16.4227 17.4523 16.4227 18.2325 16.9045M21.877 16.9045C22.6573 16.4227 23.9222 16.4227 24.7025 16.9045M17.856 19.4681C17.2837 19.8216 16.3557 19.8216 15.7834 19.4681M24.3261 19.4681C23.7537 19.8216 22.8258 19.8216 22.2535 19.4681M24.1657 28.4682V31.9253C24.1657 32.6872 24.7087 33.3417 25.4592 33.4844L30.246 34.3946C31.4749 34.6283 32.6178 35.1882 33.5543 36.0154C34.4908 36.8426 35.1862 37.9063 35.5672 39.0946L35.6696 39.4141M4.44141 39.4141L4.5438 39.0946C4.92482 37.9063 5.62022 36.8426 6.55672 36.0154C7.49321 35.1882 8.63611 34.6283 9.86498 34.3946L14.6518 33.4844C15.0156 33.4152 15.3439 33.2216 15.58 32.937C15.8161 32.6524 15.9453 32.2946 15.9453 31.9253V28.4682" stroke="#756CFF" stroke-miterlimit="10" stroke-linecap="round" stroke-linejoin="round"/>
<path d="M8.26953 34.9788L9.3479 36.2263C10.1186 37.1179 10.5717 38.2387 10.6366 39.4141M31.8415 34.9788L30.7632 36.2263C29.9925 37.1178 29.5393 38.2387 29.4744 39.414M25.8426 33.6406C25.5802 34.7203 25.0216 35.6852 24.257 36.4438M14.2684 33.6406C14.9014 36.2422 17.2525 38.1735 20.0555 38.1735C20.7073 38.1735 21.3341 38.0688 21.9208 37.8758M18.7285 2.31025C18.2728 1.91814 17.7244 1.58634 17.0891 1.3272C16.7814 1.20173 16.4318 1.36431 16.3304 1.68001C16.1095 2.36759 16.0131 3.03337 16.034 3.66267" stroke="#756CFF" stroke-miterlimit="10" stroke-linecap="round" stroke-linejoin="round"/>
<path d="M18.1278 4.64392C17.2512 4.01064 16.1767 3.60361 14.9552 3.47345C14.6143 3.43712 14.3268 3.72384 14.3632 4.06376C14.6811 7.02939 17.0285 9.38775 20.0022 9.70462C20.025 9.70704 20.0496 9.70853 20.0724 9.70704M21.3825 2.31025C21.8383 1.91814 22.3866 1.58634 23.0219 1.3272C23.3296 1.20173 23.6793 1.36431 23.7806 1.68001C24.0015 2.36759 24.0979 3.03337 24.077 3.66267" stroke="#756CFF" stroke-miterlimit="10" stroke-linecap="round" stroke-linejoin="round"/>
<path d="M21.9833 4.64392C22.8599 4.01064 23.9344 3.60361 25.1559 3.47345C25.4968 3.43712 25.7843 3.72384 25.7479 4.06376C25.4301 7.02939 23.0854 9.39056 20.1115 9.70743C20.0888 9.70986 20.0783 9.70884 20.0554 9.70736" stroke="#756CFF" stroke-miterlimit="10" stroke-linecap="round" stroke-linejoin="round"/>
<path d="M20.4741 0.79673C22.3875 3.38282 22.3875 6.91056 20.4741 9.49665C20.4259 9.5622 20.3629 9.61547 20.2902 9.6521C20.2174 9.68873 20.137 9.70769 20.0555 9.70743C19.974 9.70769 19.8936 9.68873 19.8209 9.6521C19.7482 9.61547 19.6851 9.5622 19.637 9.49665C17.7236 6.91056 17.7236 3.38282 19.637 0.79673C19.8449 0.515714 20.2662 0.515714 20.4741 0.79673Z" stroke="#756CFF" stroke-miterlimit="10" stroke-linecap="round" stroke-linejoin="round"/>
<path d="M34.8525 6.08485C35.5481 6.08485 36.112 5.52251 36.112 4.82883C36.112 4.13515 35.5481 3.57281 34.8525 3.57281C34.1569 3.57281 33.593 4.13515 33.593 4.82883C33.593 5.52251 34.1569 6.08485 34.8525 6.08485Z" stroke="#756CFF" stroke-miterlimit="10" stroke-linecap="round" stroke-linejoin="round"/>
<path d="M37.1099 17.5614C38.1114 17.5614 38.9232 16.7518 38.9232 15.7531C38.9232 14.7544 38.1114 13.9449 37.1099 13.9449C36.1085 13.9449 35.2966 14.7544 35.2966 15.7531C35.2966 16.7518 36.1085 17.5614 37.1099 17.5614Z" stroke="#756CFF" stroke-miterlimit="10" stroke-linecap="round" stroke-linejoin="round"/>
<path d="M5.25827 6.08485C5.95387 6.08485 6.51777 5.52251 6.51777 4.82883C6.51777 4.13515 5.95387 3.57281 5.25827 3.57281C4.56267 3.57281 3.99878 4.13515 3.99878 4.82883C3.99878 5.52251 4.56267 6.08485 5.25827 6.08485Z" stroke="#756CFF" stroke-miterlimit="10" stroke-linecap="round" stroke-linejoin="round"/>
<path d="M3.00103 17.5614C4.00249 17.5614 4.81432 16.7518 4.81432 15.7531C4.81432 14.7544 4.00249 13.9449 3.00103 13.9449C1.99958 13.9449 1.18774 14.7544 1.18774 15.7531C1.18774 16.7518 1.99958 17.5614 3.00103 17.5614Z" stroke="#756CFF" stroke-miterlimit="10" stroke-linecap="round" stroke-linejoin="round"/>
</g>
<defs>
<clipPath id="clip0_68_657">
<rect width="40.1108" height="40" fill="white"/>
</clipPath>
</defs>
</svg>
