<svg width="40" height="40" viewBox="0 0 40 40" fill="none" xmlns="http://www.w3.org/2000/svg">
<path d="M25.8375 32.975H4.66876C3.88126 32.975 3.18126 32.5625 2.79376 31.875C2.40626 31.1812 2.42501 30.3687 2.84376 29.7L4.31251 27.3437C4.86318 26.456 5.15538 25.4322 5.15626 24.3875V15.8375C5.15626 13.1437 6.20626 10.6062 8.10626 8.69374C9.14376 7.64999 10.425 6.83749 11.8125 6.34374C11.8375 6.33124 11.8625 6.31874 11.8938 6.30624C14.0375 5.55624 16.4625 5.55624 18.6063 6.30624C18.6313 6.31874 18.6625 6.32499 18.6875 6.34374C19.4188 6.60624 20.1375 6.96249 20.8125 7.40624C21.1 7.59374 21.1813 7.98124 20.9938 8.26874C20.8063 8.55624 20.4188 8.63749 20.1313 8.44999C19.5125 8.04999 18.8625 7.72499 18.2 7.49374C18.175 7.48124 18.1438 7.47499 18.1188 7.46249C16.2875 6.83749 14.2188 6.83749 12.3875 7.46249C12.3625 7.47499 12.3375 7.48749 12.3125 7.49374C11.0688 7.92499 9.92501 8.64374 9.00001 9.57499C8.17711 10.3967 7.52485 11.373 7.08078 12.4478C6.63671 13.5226 6.40959 14.6746 6.41251 15.8375V24.3812C6.41251 25.6562 6.05626 26.9125 5.38126 28L3.91251 30.3562C3.73751 30.6375 3.73126 30.975 3.89376 31.2687C4.05626 31.5562 4.34376 31.725 4.67501 31.725H25.8438C26.175 31.725 26.4625 31.55 26.625 31.2625C26.7813 30.975 26.775 30.6375 26.6 30.3625L25.1375 28C25.0595 27.8595 25.0385 27.6943 25.0788 27.5387C25.1191 27.3831 25.2176 27.2489 25.354 27.1639C25.4904 27.0789 25.6542 27.0494 25.8117 27.0818C25.9691 27.1141 26.1081 27.2056 26.2 27.3375L27.6625 29.7C28.0813 30.3687 28.1 31.1812 27.7188 31.8687C27.325 32.5625 26.625 32.975 25.8375 32.975Z" fill="#756CFF"/>
<path d="M15.9499 38.2063H14.5437C11.3124 38.2063 8.68115 35.575 8.68115 32.3438C8.68115 32 8.9624 31.7188 9.30615 31.7188H21.1874C21.5312 31.7188 21.8124 32 21.8124 32.3438C21.8124 35.5813 19.1812 38.2063 15.9499 38.2063ZM9.9749 32.9688C10.2812 35.2188 12.2124 36.9563 14.5437 36.9563H15.9499C18.2812 36.9563 20.2124 35.2188 20.5187 32.9688H9.9749ZM18.3999 7.52501C18.0562 7.52501 17.7749 7.24376 17.7749 6.90001V5.55626C17.7749 4.88751 17.5124 4.25001 17.0312 3.77501C16.5575 3.30441 15.9176 3.03943 15.2499 3.03751C14.5813 3.0375 13.94 3.30267 13.4667 3.77485C12.9933 4.24703 12.7266 4.88767 12.7249 5.55626V6.90001C12.7249 7.24376 12.4437 7.52501 12.0999 7.52501C11.7562 7.52501 11.4749 7.24376 11.4749 6.90001V5.55626C11.4749 3.48126 13.1687 1.78751 15.2499 1.78751C16.2437 1.78751 17.2187 2.18751 17.9187 2.88751C18.2701 3.23725 18.5489 3.65316 18.7387 4.11122C18.9286 4.56927 19.0259 5.06041 19.0249 5.55626V6.90001C19.0249 7.25001 18.7437 7.52501 18.3999 7.52501ZM25.9874 26.3813C25.8396 26.3819 25.6963 26.3302 25.583 26.2352C25.4697 26.1402 25.3938 26.0082 25.3687 25.8625L25.0437 23.9063C24.9874 23.8875 24.9312 23.8688 24.8749 23.8438L23.3499 25.1125C23.1062 25.3125 22.7562 25.3 22.5249 25.0875L19.5624 22.3375C19.4515 22.2344 19.382 22.0942 19.367 21.9435C19.3521 21.7927 19.3926 21.6417 19.4812 21.5188L20.6312 19.9C20.6062 19.8438 20.5812 19.7875 20.5562 19.7375L18.5874 19.5563C18.2749 19.525 18.0312 19.2688 18.0187 18.9563L17.8687 14.9125C17.8562 14.6 18.0812 14.325 18.3874 14.275L20.3374 13.95C20.3562 13.8938 20.3749 13.8438 20.3999 13.7875L19.1374 12.2625C18.9374 12.0188 18.9499 11.6688 19.1624 11.4375L21.9124 8.47501C22.1249 8.24376 22.4812 8.21251 22.7312 8.38751L24.3499 9.53751C24.3999 9.51251 24.4562 9.48751 24.5062 9.46876L24.6874 7.49376C24.7187 7.18126 24.9749 6.93751 25.2874 6.92501L29.3312 6.77501C29.4825 6.76845 29.631 6.81763 29.7485 6.91324C29.866 7.00885 29.9443 7.14424 29.9687 7.29376L30.2999 9.25001C30.3562 9.26876 30.4124 9.28751 30.4624 9.31251L31.9874 8.05001C32.2312 7.85001 32.5812 7.86251 32.8124 8.07501L35.7749 10.825C36.0062 11.0375 36.0437 11.3875 35.8562 11.6438L34.7062 13.2563C34.7312 13.3125 34.7562 13.3625 34.7812 13.4188L36.7562 13.6C37.0687 13.6313 37.3124 13.8875 37.3249 14.2L37.4749 18.2438C37.4874 18.5563 37.2624 18.8313 36.9562 18.8813L35.0062 19.2063C34.9874 19.2625 34.9624 19.3188 34.9437 19.375L36.2062 20.9C36.4062 21.1438 36.3937 21.4938 36.1812 21.725L33.4312 24.6875C33.2187 24.9188 32.8687 24.9563 32.6124 24.775L30.9937 23.625C30.9374 23.65 30.8812 23.675 30.8312 23.7L30.6499 25.6688C30.6187 25.9813 30.3624 26.225 30.0499 26.2375L26.0062 26.3875C26.0062 26.3813 25.9999 26.3813 25.9874 26.3813ZM24.7687 22.4938C24.8562 22.4938 24.9437 22.5125 25.0249 22.55C25.2624 22.6563 25.5062 22.75 25.7687 22.825C25.9999 22.8938 26.1687 23.0875 26.2124 23.3188L26.5124 25.1063L29.4562 25L29.6187 23.2C29.6437 22.9625 29.7999 22.7563 30.0249 22.675C30.2778 22.5786 30.5241 22.4659 30.7624 22.3375C30.8643 22.2843 30.9789 22.2603 31.0936 22.268C31.2082 22.2757 31.3186 22.3149 31.4124 22.3813L32.8874 23.425L34.8937 21.2688L33.7374 19.875C33.5874 19.6938 33.5499 19.4438 33.6437 19.225C33.7562 18.9563 33.8499 18.7063 33.9249 18.4625C33.9937 18.2313 34.1874 18.0625 34.4187 18.0188L36.2062 17.7188L36.0937 14.775L34.2937 14.6063C34.0562 14.5813 33.8499 14.425 33.7687 14.2063C33.6745 13.9565 33.5617 13.7141 33.4312 13.4813C33.3187 13.2688 33.3312 13.0125 33.4687 12.8188L34.5187 11.3438L32.3624 9.34376L30.9687 10.5C30.7874 10.65 30.5374 10.6875 30.3187 10.5938C30.0812 10.4875 29.8312 10.3938 29.5562 10.3125C29.3312 10.2438 29.1687 10.05 29.1249 9.81876L28.8187 8.03126L25.8749 8.14376L25.7124 9.95001C25.6874 10.1875 25.5312 10.3938 25.3124 10.475C25.0624 10.5688 24.8249 10.675 24.5812 10.8063C24.4793 10.8594 24.3647 10.8835 24.25 10.8758C24.1353 10.8681 24.025 10.8289 23.9312 10.7625L22.4562 9.71876L20.4499 11.875L21.6062 13.2688C21.7562 13.45 21.7937 13.7 21.6999 13.9125C21.5749 14.2 21.4874 14.4375 21.4187 14.6688C21.3499 14.9 21.1562 15.0688 20.9249 15.1125L19.1437 15.4125L19.2499 18.3563L21.0499 18.525C21.2874 18.55 21.4937 18.7063 21.5749 18.9313C21.6624 19.1625 21.7749 19.4125 21.9124 19.6688C22.0249 19.875 22.0062 20.1313 21.8687 20.3188L20.8249 21.7938L22.9812 23.7938L24.3749 22.6375C24.4874 22.5438 24.6249 22.4938 24.7687 22.4938Z" fill="#756CFF"/>
<path d="M27.6687 21.8375C26.3399 21.8394 25.0599 21.3368 24.0874 20.4312C23.5794 19.9619 23.1694 19.3966 22.8808 18.768C22.5923 18.1394 22.431 17.46 22.4062 16.7688C22.2999 13.8688 24.5687 11.4188 27.4749 11.3125C30.3749 11.2 32.8249 13.475 32.9312 16.3813C33.0374 19.2812 30.7687 21.7313 27.8624 21.8375H27.6687ZM27.6749 12.5563H27.5249C25.3124 12.6375 23.5812 14.5063 23.6624 16.7188C23.6999 17.7938 24.1562 18.7813 24.9437 19.5125C25.7312 20.2438 26.7499 20.6313 27.8249 20.5813C30.0374 20.5 31.7687 18.6313 31.6874 16.4188C31.6062 14.2625 29.8187 12.5563 27.6749 12.5563Z" fill="#756CFF"/>
</svg>
